<?xml version="1.0" encoding="utf-8"?>
<!-- Generator: Adobe Illustrator 16.2.0, SVG Export Plug-In . SVG Version: 6.00 Build 0)  -->
<!DOCTYPE svg PUBLIC "-//W3C//DTD SVG 1.1//EN" "http://www.w3.org/Graphics/SVG/1.1/DTD/svg11.dtd">
<svg version="1.1" id="Layer_1" xmlns="http://www.w3.org/2000/svg" xmlns:xlink="http://www.w3.org/1999/xlink" x="0px" y="0px"
	 width="342.05px" height="156.04px" viewBox="0 0 342.05 156.04" enable-background="new 0 0 342.05 156.04" xml:space="preserve">
<g>
	<path fill="none" d="M96.32,103.88c-1.2,0-3.13,1.01-5.7,2.94c-2.39,1.75-4.32,3.5-5.8,5.24c-3.86,4.32-5.7,8-5.7,11.04
		c0,3.22,1.2,4.78,3.77,4.78c3.5,0,6.9-2.12,10.4-6.53c3.5-4.42,5.34-8.56,5.34-12.6C98.62,105.53,97.79,103.88,96.32,103.88z"/>
	<path fill="none" d="M243.61,105.07c-1.47,0-2.76-0.37-3.68-0.92c-3.22,0.18-5.7,1.84-7.54,4.97c-1.56,2.76-2.3,5.98-2.3,9.57
		c0,2.85,0.64,5.15,2.02,6.99c1.38,2.02,3.13,2.94,5.34,2.94c2.39,0,4.6-1.75,6.81-5.24c2.02-3.22,3.04-6.35,3.04-9.38
		C247.29,109.67,246,106.73,243.61,105.07z"/>
	<path fill="none" d="M328.34,105.07c-1.47,0-2.76-0.37-3.68-0.92c-3.22,0.18-5.7,1.84-7.54,4.97c-1.56,2.76-2.3,5.98-2.3,9.57
		c0,2.85,0.64,5.15,2.02,6.99c1.38,2.02,3.13,2.94,5.34,2.94c2.39,0,4.6-1.75,6.81-5.24c2.02-3.22,3.04-6.35,3.04-9.38
		C332.02,109.67,330.73,106.73,328.34,105.07z"/>
	<path fill="#ffffff" d="M61.91,119.42c-0.64-3.22-0.92-6.16-0.92-8.92c0-4.23-0.83-6.44-2.39-6.44c-3.96,0-10.67,6.72-20.15,19.96
		c-1.47-3.68-2.21-9.57-2.21-17.66c0-4.05-0.74-6.16-2.12-6.16c-2.76,0-9.84,6.16-21.44,18.31c0.64-3.13,1.29-6.26,2.02-9.48
		c0.83-3.86,1.29-7.08,1.29-9.48c0-5.34-1.1-8-3.22-8c-0.92,0-1.75,0.37-2.58,1.01c-1.1,0.83-1.75,1.75-1.93,2.85
		c1.01,2.39,1.56,4.32,1.56,5.98c0,2.39-0.83,7.36-2.3,14.72c-1.29,6.16-1.93,10.76-1.93,13.71c0,4.23,1.1,6.44,3.5,6.44
		c1.29,0,2.39-1.66,3.13-4.88c0.92-3.86,3.4-8.1,7.64-12.88c3.31-3.86,6.81-7.08,10.4-9.48c0.09,8.19,1.1,14.54,3.13,19.04
		c1.2,2.85,2.48,4.23,3.96,4.23c1.38,0,2.94-1.29,4.6-3.96c3.86-6.26,8.28-11.78,13.06-16.65c1.47,14.44,3.86,21.62,7.08,21.62
		c2.58,0,3.96-1.1,3.96-3.5c0-0.37-0.46-1.01-1.2-2.12C63.57,126.14,62.65,123.38,61.91,119.42z"/>
	<path fill="#ffffff" d="M102.85,102.68c0.18-0.64,0.28-1.1,0.28-1.29c0-1.01-0.55-1.93-1.47-2.76c-1.01-0.74-2.02-1.2-2.94-1.2
		c-4.23,0-9.29,2.76-15.36,8.28c-1.93,1.84-3.31,3.31-4.05,4.23c-3.86,4.78-5.7,9.2-5.7,13.43c0,2.67,0.83,5.06,2.58,7.08
		c1.75,2.39,3.86,3.5,6.35,3.5c4.69,0,9.57-3.04,14.63-9.11c0.37,3.4,0.64,5.89,0.83,7.45c0.28,2.94,1.29,4.51,3.13,4.51
		c1.93,0,2.94-0.92,2.94-2.67c0-0.18-0.37-1.56-0.92-4.32c-0.37-1.47-0.46-3.04-0.46-4.6c0-4.23,0.64-8.37,2.02-12.24
		c0.18-0.74,0.37-1.29,0.37-1.66c0-0.64-0.37-1.47-1.1-2.39C103.96,106.64,103.59,104.52,102.85,102.68z M93.29,121.36
		c-3.5,4.42-6.9,6.53-10.4,6.53c-2.58,0-3.77-1.56-3.77-4.78c0-3.04,1.84-6.72,5.7-11.04c1.47-1.75,3.4-3.5,5.8-5.24
		c2.58-1.93,4.51-2.94,5.7-2.94c1.47,0,2.3,1.66,2.3,4.88C98.62,112.8,96.78,116.94,93.29,121.36z"/>
	<path fill="#ffffff" d="M142.78,96.15c-3.68,0-7.27,1.38-10.76,4.14c-3.68,2.85-6.53,6.35-8.74,10.49
		c-0.37-1.84-0.92-4.42-1.66-7.91c-0.74-3.31-2.12-5.06-4.14-5.06c-0.46,0-0.83,0.37-1.2,1.1c-0.46,0.74-0.64,1.38-0.64,1.93
		c0,1.47,0.18,3.5,0.64,5.98c0.18,1.29,0.74,2.58,1.84,3.68c0.55,2.67,0.92,5.34,0.92,8c0,2.39-0.28,4.97-0.74,7.73
		c-0.46,2.3-0.83,3.86-1.01,4.78c0,1.29,0.37,2.3,1.1,3.4c0.74,1.1,1.56,1.75,2.58,1.75c1.2,0,2.21-3.13,3.04-9.29
		c1.47-11.78,6.26-19.41,14.17-23.09c1.1,0.37,1.66,0.55,1.84,0.55c0.92,0,2.12-0.37,3.77-1.1c1.93-0.83,2.94-1.75,2.94-2.76
		c-0.09-1.01-0.46-2.02-1.2-2.94C144.62,96.61,143.7,96.15,142.78,96.15z"/>
	<path fill="#ffffff" d="M172.31,94.03c-1.66-0.46-3.04-0.74-4.05-0.74c-2.58,0-4.23,0.74-4.78,2.21c-4.23,1.56-6.26,4.32-6.26,8.37
		c0,1.66,0.28,3.31,0.92,5.06c0.74,1.84,1.38,3.59,2.02,5.24c2.67,7.54,4.05,12.05,4.05,13.34c0,2.94-2.21,4.32-6.62,4.32
		c-0.83,0-2.02-0.09-3.59-0.37c-1.66-0.18-2.58-0.28-2.94-0.28c-1.56,0-2.3,1.2-2.3,3.5c0,2.02,2.85,3.13,8.56,3.13
		c3.5,0,6.35-0.64,8.56-1.84c2.58-1.56,3.86-3.77,3.86-6.81c0-2.39-1.01-6.35-2.94-11.96c-0.83-2.21-1.66-4.42-2.58-6.62
		c-1.1-2.76-1.56-4.6-1.56-5.43c0-2.67,1.47-4.05,4.6-4.05c0.55,0,1.38,0.09,2.48,0.18c1.1,0.18,1.93,0.18,2.48,0.18
		c1.56,0,2.39-0.83,2.58-2.67c-0.28-0.83-0.46-1.47-0.55-1.93C173.78,95.23,173.14,94.31,172.31,94.03z"/>
	<path fill="#ffffff" d="M218.68,64.41c-1.47,0-3.4,0.64-5.98,1.93c-2.76,1.29-4.69,2.39-5.89,3.5
		c-8.19,7.18-13.43,20.42-15.64,39.56c-1.66,0.46-2.76,0.74-3.22,0.83c-1.84,0.37-3.22,0.55-4.05,0.55c-1.84,0-2.67,1.1-2.67,3.13
		c0,0.74,0.18,1.47,0.74,2.02c0.55,0.55,1.2,0.83,1.93,0.83c0.92,0,3.13-0.37,6.53-1.2c-2.21,18.31-4.6,28.7-7.27,31.28
		c-0.55,0.46-1.01,0.92-1.38,1.38c-0.37,0.37-0.55,1.01-0.55,1.93s0.28,1.75,1.01,2.67c0.64,0.83,1.47,1.29,2.39,1.29
		s2.02-1.2,3.31-3.4c3.31-6.44,5.89-18.58,7.91-36.43c8.83-2.02,15.18-3.4,18.86-4.05c0.55,0.18,1.01,0.28,1.56,0.28
		c1.1,0,2.12-0.37,3.22-1.1c1.01-0.55,1.56-1.47,1.56-2.67c0-1.93-1.01-2.94-2.94-2.94c-1.84,0-3.68,0.28-5.52,0.64
		c-7.27,1.75-12.6,3.04-16.01,3.77c1.38-12.05,4.32-21.71,8.92-29.07c3.31-5.34,8.28-8.37,14.72-9.02c1.29-0.74,1.93-1.93,1.93-3.59
		C222.17,65.15,220.98,64.41,218.68,64.41z"/>
	<path fill="#ffffff" d="M241.95,96.89c-1.1-0.37-1.84-0.55-2.02-0.55c-0.46,0-0.92,0.09-1.29,0.18c-0.74,0.92-1.93,1.75-3.59,2.58
		c-3.13,1.66-5.61,4.42-7.54,8.37c-1.84,3.68-2.76,7.45-2.76,11.22c0,4.14,1.1,7.73,3.4,10.76c2.39,3.5,5.52,5.15,9.38,5.15
		c2.39,0,4.78-1.1,7.36-3.13c2.58-2.02,4.23-4.23,5.15-6.72c0.55-1.47,0.92-2.58,1.2-3.31c0.92-2.3,1.38-5.24,1.38-8.83
		c0-3.4-1.01-6.62-2.94-9.57C247.66,100.11,245.08,98.08,241.95,96.89z M244.25,123.38c-2.21,3.5-4.42,5.24-6.81,5.24
		c-2.21,0-3.96-0.92-5.34-2.94c-1.38-1.84-2.02-4.14-2.02-6.99c0-3.59,0.74-6.81,2.3-9.57c1.84-3.13,4.32-4.78,7.54-4.97
		c0.92,0.55,2.21,0.92,3.68,0.92c2.39,1.66,3.68,4.6,3.68,8.92C247.29,117.03,246.28,120.16,244.25,123.38z"/>
	<path fill="#ffffff" d="M276.27,66.34c-1.47-1.29-2.58-1.93-3.5-1.93c-0.74,0-1.2,0.64-1.56,1.84
		c-4.05,13.52-5.98,26.13-5.98,37.81c0,5.98,0.09,10.86,0.46,14.54c-0.55,0.92-0.83,2.02-0.83,3.4c0,0.37,0,1.38,0.09,3.13
		c0,1.84,0.09,2.85,0.09,3.22c0,1.38,0.55,3.04,1.84,4.97c1.29,2.02,2.58,3.13,3.86,3.13c0.92,0,1.38-0.46,1.38-1.38
		c-0.92-7.36-1.29-16.74-1.29-28.06c0-4.69,0.37-10.49,1.29-17.29c0.74-6.35,1.66-11.5,2.67-15.46l0.64-0.55
		c1.93-0.92,2.94-2.21,2.94-3.68C278.39,68.92,277.65,67.63,276.27,66.34z"/>
	<path fill="#ffffff" d="M291.82,97.9c-0.92,0.55-1.38,1.29-1.38,2.12c0,0.28,0.09,1.01,0.28,2.12c-2.58,12.7-3.77,20.15-3.77,22.54
		c0,2.94,0.46,5.24,1.38,7.08c1.2,2.3,2.48,3.5,3.96,3.5c1.1,0,1.75-0.64,1.75-1.93c0-1.47-0.64-2.94-1.84-4.23
		c0-4.78,1.01-11.5,3.13-20.15c0.64-2.39,1.2-4.42,1.66-6.26C296.97,99.74,295.22,98.08,291.82,97.9z"/>
	<path fill="#ffffff" d="M297.34,61.74c-2.39,0.83-3.68,2.21-3.86,4.23c0,0.64,0.09,1.2,0.09,1.75c0,3.22,1.75,5.15,5.34,5.8
		c2.02-0.18,3.04-2.02,3.04-5.52C301.94,64.14,300.38,62.11,297.34,61.74z"/>
	<path fill="#ffffff" d="M334.41,103.05c-2.02-2.94-4.6-4.97-7.73-6.16c-1.1-0.37-1.84-0.55-2.02-0.55c-0.46,0-0.92,0.09-1.29,0.18
		c-0.74,0.92-1.93,1.75-3.59,2.58c-3.13,1.66-5.61,4.42-7.54,8.37c-1.84,3.68-2.76,7.45-2.76,11.22c0,4.14,1.1,7.73,3.4,10.76
		c2.39,3.5,5.52,5.15,9.38,5.15c2.39,0,4.78-1.1,7.36-3.13c2.58-2.02,4.23-4.23,5.15-6.72c0.55-1.47,0.92-2.58,1.2-3.31
		c0.92-2.3,1.38-5.24,1.38-8.83C337.36,109.21,336.34,105.99,334.41,103.05z M328.99,123.38c-2.21,3.5-4.42,5.24-6.81,5.24
		c-2.21,0-3.96-0.92-5.34-2.94c-1.38-1.84-2.02-4.14-2.02-6.99c0-3.59,0.74-6.81,2.3-9.57c1.84-3.13,4.32-4.78,7.54-4.97
		c0.92,0.55,2.21,0.92,3.68,0.92c2.39,1.66,3.68,4.6,3.68,8.92C332.02,117.03,331.01,120.16,328.99,123.38z"/>
</g>
</svg>
